<svg width="38" height="40" viewBox="0 0 38 40" fill="none" xmlns="http://www.w3.org/2000/svg">
<path d="M37.7547 24.4906L31.5263 19.7414L37.7547 14.9923C37.8815 14.8965 37.9553 14.7473 37.9553 14.589C37.9553 14.4306 37.8815 14.2815 37.7547 14.1856L19.29 0.105625C19.1062 -0.0352083 18.8493 -0.0352083 18.6655 0.105625L0.20059 14.1848C0.07386 14.2807 0 14.4298 0 14.5881V24.8939C0 25.0523 0.07386 25.2015 0.20059 25.2973L18.6655 39.3773C18.7578 39.4473 18.8677 39.4823 18.9777 39.4823C19.0876 39.4823 19.1976 39.4473 19.29 39.3773L37.7547 25.2973C37.8815 25.2015 37.9553 25.0523 37.9553 24.8939C37.9553 24.7356 37.8815 24.5864 37.7547 24.4906ZM30.6853 19.0989L19.4905 10.5631V1.54062L36.6007 14.5881L30.6853 19.0989ZM18.9777 11.4556L29.8434 19.7414L18.9777 28.0273L8.11194 19.7414L18.9777 11.4556ZM18.4649 1.54062V10.5623L7.27011 19.0989L1.35465 14.5881L18.4649 1.54062ZM1.02732 15.6223L6.42829 19.7414L1.02732 23.8607V15.6223ZM18.9777 38.3323L1.35465 24.8939L7.27011 20.3831L18.6655 29.0723C18.7578 29.1423 18.8677 29.1773 18.9777 29.1773C19.0876 29.1773 19.1976 29.1423 19.29 29.0723L30.6853 20.3831L36.6007 24.8939L18.9777 38.3323Z" fill="#FF5000"/>
</svg>
