<svg width="171" height="40" viewBox="0 0 171 40" fill="none" xmlns="http://www.w3.org/2000/svg">
<g clip-path="url(#clip0_6072_339)">
<path d="M61.4208 27.3444C61.4447 27.4632 61.4803 27.6058 61.3376 27.6058H59.3744C59.0532 27.6058 58.9104 27.3088 58.9104 26.9049V25.5624C58.1252 26.786 57.0069 27.7483 55.1984 27.7483H54.1157C51.4269 27.7483 49.6184 26.1683 49.6184 23.2815C49.6184 20.3946 51.2602 19.0522 54.0682 19.0522H58.9223V17.9711C58.9223 15.7496 58.2799 15.1436 56.1978 15.1436H55.4958C53.973 15.1436 52.8902 15.4644 52.105 15.8683C51.7243 16.0109 51.4269 16.0465 51.2841 15.7258L50.7844 14.6209C50.7011 14.3833 50.7011 14.217 50.9866 14.0388C52.1883 13.2785 53.8778 12.8984 55.4839 12.8984H56.1858C59.8147 12.8984 61.3613 14.5378 61.3613 18.0661V26.9168C61.3613 27.0593 61.3851 27.2375 61.4208 27.3563V27.3444ZM55.5196 25.4793C57.4827 25.4793 58.4108 24.5408 58.9104 23.3171V21.0717H54.1039C52.8427 21.0717 52.0574 21.5945 52.0574 23.2577C52.0574 24.9209 52.8427 25.4793 54.1039 25.4793H55.5078H55.5196ZM73.7706 17.7453C73.4731 17.7453 73.3066 17.5672 73.2709 17.2464C73.0092 15.8208 72.1287 15.1793 70.8676 15.1793H69.6421C67.9169 15.1793 66.9176 16.0821 66.9176 18.0067V22.7944C66.9176 24.5408 67.9169 25.4793 69.6421 25.4793H70.8437C72.5094 25.4793 73.0092 24.8615 73.7349 23.9943C73.9371 23.7567 74.175 23.7567 74.4368 23.9348L75.4005 24.6357C75.6623 24.814 75.6623 25.016 75.4839 25.2536C74.4368 26.5365 73.5207 27.7602 70.8319 27.7602H69.6302C66.4416 27.7602 64.3715 25.5743 64.3715 22.3905V18.2205C64.3715 14.9536 66.4416 12.9339 69.6302 12.9339H70.8557C73.485 12.9339 75.3529 14.5735 75.7336 17.2226C75.7575 17.5672 75.5909 17.7453 75.2697 17.7453H73.7467H73.7706ZM87.6551 17.7453C87.3577 17.7453 87.1911 17.5672 87.1554 17.2464C86.8937 15.8208 86.0133 15.1793 84.7521 15.1793H83.5266C81.8014 15.1793 80.8021 16.0821 80.8021 18.0067V22.7944C80.8021 24.5408 81.8014 25.4793 83.5266 25.4793H84.7282C86.3939 25.4793 86.8937 24.8615 87.6194 23.9943C87.8216 23.7567 88.0596 23.7567 88.3213 23.9348L89.285 24.6357C89.5468 24.814 89.5468 25.016 89.3683 25.2536C88.3213 26.5365 87.4052 27.7602 84.7164 27.7602H83.5147C80.3261 27.7602 78.256 25.5743 78.256 22.3905V18.2205C78.256 14.9536 80.3261 12.9339 83.5147 12.9339H84.7401C87.3695 12.9339 89.2374 14.5735 89.6182 17.2226C89.642 17.5672 89.4754 17.7453 89.1542 17.7453H87.6313H87.6551ZM98.7079 12.8984C101.897 12.8984 103.883 14.9179 103.883 18.2087V22.4736C103.883 25.7169 101.897 27.7602 98.7079 27.7602H97.3279C94.175 27.7602 92.1524 25.7169 92.1524 22.4736V18.2087C92.1524 14.906 94.175 12.8984 97.3279 12.8984H98.7079ZM101.433 22.7112V17.9829C101.433 16.0584 100.409 15.1555 98.7079 15.1555H97.3279C95.6264 15.1555 94.6389 16.0584 94.6389 17.9829V22.7112C94.6389 24.5527 95.6384 25.4793 97.3279 25.4793H98.7079C100.409 25.4793 101.433 24.5408 101.433 22.7112ZM111.438 27.7364C108.131 27.7364 106.965 25.7763 106.965 22.5687V13.4448C106.965 13.1479 107.108 13.0052 107.405 13.0052H109.011C109.309 13.0052 109.452 13.1479 109.452 13.4448V22.6993C109.452 24.5645 110.094 25.4436 111.938 25.4436H112.343C114.27 25.4436 115.448 24.3981 115.817 23.721V13.4448C115.817 13.1479 115.96 13.0052 116.257 13.0052H117.863C118.161 13.0052 118.304 13.1479 118.304 13.4448V27.1663C118.304 27.4632 118.161 27.6058 117.863 27.6058H116.257C115.96 27.6058 115.817 27.4632 115.817 27.1663V25.5624C114.995 26.8217 113.592 27.7245 111.664 27.7245H111.426L111.438 27.7364ZM128.69 12.8984C132.021 12.8984 133.163 14.8229 133.163 18.0661V27.1781C133.163 27.4751 133.021 27.6177 132.723 27.6177H131.117C130.82 27.6177 130.677 27.4751 130.677 27.1781V17.9235C130.677 16.0584 130.034 15.1555 128.226 15.1555H127.786C125.858 15.1555 124.681 16.2367 124.311 16.9019V27.1781C124.311 27.4751 124.169 27.6177 123.871 27.6177H122.265C121.967 27.6177 121.825 27.4751 121.825 27.1781V13.4448C121.825 13.1479 121.967 13.0052 122.265 13.0052H123.871C124.169 13.0052 124.311 13.1479 124.311 13.4448V15.0487C125.132 13.7893 126.537 12.8865 128.464 12.8865H128.701L128.69 12.8984ZM142.611 15.2625H140.361V23.1508C140.361 24.7903 140.885 25.3723 142.527 25.4317C142.872 25.4317 143.027 25.6693 142.991 25.9901L142.967 27.19C142.943 27.5107 142.729 27.689 142.384 27.689C138.91 27.6652 137.886 26.1683 137.886 23.1389V15.2506H136.4C136.102 15.2506 135.96 15.108 135.96 14.8111V13.4685C135.96 13.1479 136.102 13.0052 136.4 13.0052H137.886V11.2232C137.886 10.9263 138.03 10.7837 138.326 10.7837H139.933C140.23 10.7837 140.374 10.9263 140.374 11.2232V13.0052H142.598C142.92 13.0052 143.062 13.1479 143.062 13.4448V14.8229C143.062 15.1199 142.884 15.2625 142.622 15.2625H142.611ZM151.997 12.8984C154.663 12.8984 157.03 14.8585 157.03 18.1849V20.4065C157.03 20.9649 156.685 21.3093 156.09 21.3093H148.083V22.7944C148.083 24.5408 149.082 25.4793 150.807 25.4793H152.009C153.818 25.4793 154.293 24.9565 155.019 24.0775C155.221 23.8399 155.365 23.8161 155.661 24.018L156.506 24.6001C156.804 24.8021 156.804 24.9803 156.626 25.2179C155.578 26.5009 154.579 27.7602 152.009 27.7602H150.807C147.619 27.7602 145.548 25.5743 145.548 22.3905V18.2205C145.548 14.9179 147.619 12.9103 150.807 12.9103H152.009L151.997 12.8984ZM154.508 19.2898V17.9711C154.508 16.0465 153.461 15.1436 151.997 15.1436H150.796C149.071 15.1436 148.071 16.0465 148.071 18.0067V19.2898H154.508ZM169.035 17.7453C168.737 17.7453 168.571 17.5672 168.535 17.2464C168.273 15.8208 167.393 15.1793 166.132 15.1793H164.907C163.181 15.1793 162.182 16.0821 162.182 18.0067V22.7944C162.182 24.5408 163.181 25.4793 164.907 25.4793H166.108C167.774 25.4793 168.273 24.8615 168.999 23.9943C169.201 23.7567 169.439 23.7567 169.7 23.9348L170.665 24.6357C170.926 24.814 170.926 25.016 170.748 25.2536C169.7 26.5365 168.785 27.7602 166.096 27.7602H164.894C161.706 27.7602 159.635 25.5743 159.635 22.3905V18.2205C159.635 14.9536 161.706 12.9339 164.894 12.9339H166.12C168.75 12.9339 170.617 14.5735 170.998 17.2226C171.022 17.5672 170.855 17.7453 170.534 17.7453H169.011H169.035Z" fill="#393B50"/>
<path d="M44.3056 35.1389L24.9438 1.30723C23.9476 -0.424449 21.4534 -0.439442 20.4423 1.28474L16.1505 8.59381L14.5252 11.36C13.7911 12.6119 14.2106 14.2312 15.4614 14.9658L15.9109 15.2282C17.1991 15.9854 18.8543 15.5505 19.6108 14.2611L21.4909 11.0601L22.4271 9.47089C22.547 9.26099 22.8466 9.26849 22.9664 9.47089L29.9322 21.6152C31.0782 23.6242 28.8236 25.8507 26.8313 24.6813L7.97136 13.5939C6.61566 12.7993 4.87048 13.2491 4.06904 14.6059L3.85932 14.9733C3.11781 16.2327 3.53725 17.8295 4.78809 18.5566C5.49216 18.9689 6.25614 19.4187 6.93773 19.816C8.00881 20.4457 8.37582 21.825 7.73916 22.9046L1.99429 32.695L0.361464 35.4761C-0.37256 36.7281 0.0468828 38.3473 1.29772 39.0819L1.74713 39.3443C3.03541 40.1015 4.69071 39.6667 5.44721 38.3773L6.25614 37.0055C6.25614 37.0055 6.25614 37.0055 6.25614 37.0129L12.8024 25.8582C13.4316 24.7862 14.8173 24.4189 15.8883 25.0561L28.2994 32.3502L28.5016 32.4701C28.6439 32.5975 28.8012 32.7175 28.9734 32.8149L40.246 39.3218C40.9501 39.7266 41.7964 39.8241 42.5529 39.5617C44.5453 38.8646 45.1969 36.713 44.2906 35.1313L44.3056 35.1389Z" fill="#00BD9C"/>
</g>
<defs>
<clipPath id="clip0_6072_339">
<rect width="171" height="40" fill="white"/>
</clipPath>
</defs>
</svg>
