<svg width="149" height="32" viewBox="0 0 149 32" fill="none" xmlns="http://www.w3.org/2000/svg">
<path d="M18.33 2.08105H10.667C5.3335 2.08105 1.71655 5.63996 1.71655 10.8878V29.7681C1.71655 30.311 2.02307 30.6126 2.57481 30.6126H6.83546C7.3872 30.6126 7.69372 30.311 7.69372 29.7681V21.9265H18.3607C18.9124 21.9265 19.2189 21.6249 19.2189 21.082V17.0707C19.2189 16.5278 18.9124 16.2262 18.3607 16.2262H7.66307V10.737C7.66307 8.98775 8.8585 7.8115 10.6363 7.8115H18.33C18.8817 7.8115 19.1883 7.5099 19.1883 6.96701V2.92554C19.1883 2.38266 18.8817 2.08105 18.33 2.08105Z" fill="#003824"/>
<path d="M33.0124 7.11768C25.9624 7.11768 20.9048 12.3656 20.9048 19.0913C20.9048 25.817 25.993 31.0649 33.0124 31.0649C40.0317 31.0649 45.12 25.817 45.12 19.0913C45.12 12.3656 40.0624 7.11768 33.0124 7.11768ZM33.0124 25.4249C29.3954 25.4249 26.7287 22.7708 26.7287 19.0913C26.7287 15.4117 29.3648 12.7576 33.0124 12.7576C36.66 12.7576 39.2961 15.4117 39.2961 19.0913C39.2961 22.7708 36.66 25.4249 33.0124 25.4249Z" fill="#003824"/>
<path d="M74.1476 7.53981H66.883V2.08081C66.883 1.53793 66.5765 1.23633 66.0248 1.23633H61.7641C61.2124 1.23633 60.9059 1.53793 60.9059 2.08081V7.53981H55.787C50.4842 7.53981 46.8365 11.0987 46.8365 16.3466V29.7679C46.8365 30.3108 47.1431 30.6124 47.6948 30.6124H51.9555C52.5072 30.6124 52.8137 30.3108 52.8137 29.7679V16.1656C52.8137 14.4163 54.0091 13.2401 55.787 13.2401H60.9059V21.8056C60.9059 27.0535 64.5228 30.6124 69.8563 30.6124H74.1169C74.6687 30.6124 74.9752 30.3108 74.9752 29.7679V25.7566C74.9752 25.2137 74.6687 24.9121 74.1169 24.9121H69.8869C68.1091 24.9121 66.9137 23.7359 66.9137 21.9866V13.2401H74.1782C74.73 13.2401 75.0365 12.9385 75.0365 12.3956V8.3843C75.0059 7.81126 74.6993 7.53981 74.1476 7.53981Z" fill="#003824"/>
<path d="M87.3892 7.11768C80.9523 7.11768 76.7223 11.1893 76.7223 17.4023V29.7982C76.7223 30.3411 77.0288 30.6427 77.5806 30.6427H81.8412C82.3929 30.6427 82.6995 30.3411 82.6995 29.7982V17.4023C82.6995 14.5974 84.5692 12.7878 87.3892 12.818C90.2092 12.7878 92.079 14.5673 92.079 17.4023V29.7982C92.079 30.3411 92.3855 30.6427 92.9373 30.6427H97.1979C97.7497 30.6427 98.0562 30.3411 98.0562 29.7982V17.4023C98.0562 11.1893 93.8262 7.11768 87.3892 7.11768Z" fill="#003824"/>
<path d="M111.88 7.11768C104.83 7.11768 99.7727 12.3656 99.7727 19.0913C99.7727 25.817 104.861 31.0649 111.88 31.0649C118.93 31.0649 123.988 25.817 123.988 19.0913C123.988 12.3656 118.9 7.11768 111.88 7.11768ZM111.88 25.4249C108.263 25.4249 105.597 22.7708 105.597 19.0913C105.597 15.4117 108.233 12.7576 111.88 12.7576C115.497 12.7576 118.164 15.4117 118.164 19.0913C118.164 22.7708 115.497 25.4249 111.88 25.4249Z" fill="#003824"/>
<path d="M140.08 19.0311L147.621 11.6117C148.019 11.2196 148.019 10.8275 147.621 10.4354L144.647 7.50988C144.249 7.1178 143.85 7.1178 143.452 7.50988L135.912 14.9293L128.371 7.50988C127.973 7.1178 127.574 7.1178 127.176 7.50988L124.202 10.4354C123.804 10.8275 123.804 11.2196 124.202 11.6117L131.743 19.0311L124.141 26.4505C123.743 26.8426 123.743 27.2347 124.141 27.6268L127.114 30.5523C127.513 30.9444 127.911 30.9444 128.31 30.5523L135.85 23.1329L143.391 30.5523C143.789 30.9444 144.188 30.9444 144.586 30.5523L147.559 27.6268C147.958 27.2347 147.958 26.8426 147.559 26.4505L140.08 19.0311Z" fill="#003824"/>
</svg>
