<svg width="164" height="48" viewBox="0 0 164 48" fill="none" xmlns="http://www.w3.org/2000/svg">
<path d="M62.1459 16.2525H65.182V30.2331H62.613V20.5632L58.7012 28.2525H56.7161L52.8042 20.5632V30.2331H50.2352V16.2525H53.2713L57.767 25.1069L62.1459 16.2525ZM76.1002 22.5438C76.5089 23.3011 76.7424 24.1749 76.7424 25.2234C76.7424 26.2137 76.5672 27.1457 76.1002 27.903C75.6915 28.6603 75.0492 29.2428 74.2902 29.7088C73.5312 30.1166 72.6554 30.3496 71.7212 30.3496C70.787 30.3496 69.9113 30.1749 69.1522 29.7088C68.3932 29.3011 67.8094 28.6603 67.3423 27.903C66.9336 27.1457 66.7 26.2719 66.7 25.2234C66.7 24.2331 66.9336 23.3011 67.4007 22.5438C67.8094 21.7865 68.4516 21.204 69.2106 20.738C69.9696 20.3302 70.8454 20.0972 71.7796 20.0972C72.7138 20.0972 73.5896 20.2719 74.3486 20.738C75.1076 21.204 75.6915 21.7865 76.1002 22.5438ZM74.1734 25.2817C74.1734 24.2914 73.8815 23.5923 73.4144 23.0681C72.9473 22.5438 72.3635 22.3108 71.7212 22.3108C71.0206 22.3108 70.4367 22.5438 69.9696 23.0681C69.4442 23.5341 69.2106 24.2914 69.2106 25.2817C69.2106 26.2719 69.5026 26.971 69.9696 27.4952C70.4951 28.0195 71.079 28.2525 71.7212 28.2525C72.4218 28.2525 73.0057 28.0195 73.4728 27.4952C73.9983 26.971 74.2318 26.2719 74.1734 25.2817ZM83.9239 20.0972C83.1648 20.0972 82.4642 20.2719 81.8804 20.6215C81.2965 20.971 80.8294 21.437 80.5375 22.0195L80.3623 20.3302H78.0853V30.2331H80.6542V25.1069C80.6542 24.1749 80.8878 23.4758 81.3549 23.0098C81.822 22.4855 82.4058 22.2525 83.1064 22.2525C83.8655 22.2525 84.3909 22.4855 84.7413 22.9516C85.0916 23.4176 85.2667 24.0584 85.2667 24.9321V30.2914H87.8357V24.6991C87.8357 23.1846 87.4854 22.0778 86.8431 21.3205C86.1425 20.4467 85.15 20.0972 83.9239 20.0972ZM89.4705 30.2331H92.0395V20.3302H89.4705V30.2331ZM90.755 15.8448C90.2879 15.8448 89.8792 15.9613 89.5873 16.2525C89.2954 16.5438 89.1202 16.8933 89.1202 17.3011C89.1202 17.7088 89.2954 18.0584 89.5873 18.3496C89.8792 18.6409 90.2879 18.7574 90.755 18.7574C91.2221 18.7574 91.6308 18.6409 91.9227 18.3496C92.2146 18.0584 92.3898 17.7088 92.3898 17.3011C92.3898 16.8933 92.2146 16.5438 91.9227 16.2525C91.6308 15.9613 91.2221 15.8448 90.755 15.8448ZM97.1774 17.6506H94.9004L94.6085 20.3302H92.9153V22.4855H94.6085V26.7962C94.6085 28.0778 94.9004 29.0098 95.5426 29.4758C96.1849 30.0001 97.0023 30.2331 98.0532 30.2331H99.8048V28.0778H98.5787C98.0532 28.0778 97.7029 27.9613 97.5278 27.7865C97.2942 27.6118 97.2358 27.2622 97.2358 26.7962V22.4855H99.9216V20.3302H97.2358V17.6506H97.1774ZM109.847 22.5438C110.256 23.3011 110.489 24.1749 110.489 25.2234C110.489 26.2137 110.314 27.1457 109.847 27.903C109.438 28.6603 108.796 29.2428 108.037 29.7088C107.278 30.1166 106.402 30.3496 105.468 30.3496C104.534 30.3496 103.658 30.1749 102.899 29.7088C102.14 29.3011 101.556 28.6603 101.089 27.903C100.681 27.1457 100.447 26.2719 100.447 25.2234C100.447 24.2331 100.681 23.3011 101.148 22.5438C101.556 21.7865 102.199 21.204 102.958 20.738C103.717 20.3302 104.592 20.0972 105.527 20.0972C106.461 20.0972 107.337 20.2719 108.096 20.738C108.855 21.204 109.497 21.7865 109.847 22.5438ZM107.92 25.2817C107.92 24.2914 107.629 23.5923 107.161 23.0681C106.694 22.5438 106.11 22.3108 105.468 22.3108C104.768 22.3108 104.184 22.5438 103.717 23.0681C103.191 23.5341 102.958 24.2914 102.958 25.2817C102.958 26.2719 103.25 26.971 103.717 27.4952C104.242 28.0195 104.826 28.2525 105.468 28.2525C106.169 28.2525 106.753 28.0195 107.22 27.4952C107.745 26.971 107.979 26.2719 107.92 25.2817ZM114.401 22.1943L114.168 20.3302H111.891V30.2331H114.46V25.7477C114.46 24.9904 114.576 24.4079 114.81 23.9418C115.044 23.5341 115.394 23.2428 115.861 23.0681C116.328 22.8933 116.795 22.8351 117.379 22.8351H118.08V20.1554C117.262 20.1554 116.503 20.3302 115.861 20.738C115.219 21.0292 114.752 21.5535 114.401 22.1943ZM122.634 30.2331H131.8V28.1943H125.203V24.1166H131.216V22.136H125.203V18.2914H131.8V16.2525H122.634V30.2331ZM140.617 24.4079L143.536 30.2331H140.617L137.989 24.6991H135.887V30.2331H133.318V16.2525H138.456C139.566 16.2525 140.5 16.4273 141.2 16.8351C141.959 17.1846 142.485 17.7088 142.835 18.3496C143.185 18.9904 143.361 19.7477 143.361 20.505C143.361 21.3787 143.185 22.136 142.718 22.8351C142.31 23.5341 141.609 24.0584 140.617 24.4079ZM140.85 20.5632C140.85 19.9224 140.675 19.3982 140.266 18.9904C139.857 18.5826 139.215 18.4079 138.339 18.4079H135.946V22.8351H138.339C139.157 22.8351 139.799 22.602 140.208 22.1943C140.617 21.7865 140.792 21.2622 140.85 20.5632ZM154.512 18.2331C154.863 18.8739 155.038 19.6312 155.038 20.4467C155.038 21.2622 154.863 21.9613 154.512 22.602C154.162 23.2428 153.637 23.7671 152.878 24.1749C152.177 24.5826 151.243 24.7574 150.075 24.7574H147.448V30.1749H144.879V16.1943H150.075C151.243 16.1943 152.119 16.4273 152.878 16.7768C153.637 17.1846 154.162 17.7088 154.512 18.2331ZM152.469 20.505C152.469 19.8059 152.294 19.2817 151.885 18.8739C151.476 18.4661 150.834 18.2914 149.958 18.2914H147.506V22.7185H149.958C150.834 22.7185 151.476 22.5438 151.885 22.136C152.294 21.7283 152.469 21.204 152.469 20.505ZM44.4901 24.0554C44.4901 35.4147 35.2651 44.6185 23.8799 44.6185C12.4946 44.6185 3.26965 35.4147 3.26965 24.0554C3.26965 12.6962 12.4946 3.43408 23.8799 3.43408C35.3235 3.43408 44.4901 12.6962 44.4901 24.0554ZM41.7459 24.0554C41.7459 14.2108 33.7471 6.2302 23.8799 6.2302C14.0127 6.2302 6.01379 14.2108 6.01379 24.0554C6.01379 33.9001 14.0127 41.8807 23.8799 41.8807C33.8055 41.8807 41.8043 33.9001 41.7459 24.0554ZM36.1993 16.4826L24.814 32.7351H36.7247L36.6664 19.0201C36.6664 17.4351 36.1993 16.4826 36.1993 16.4826ZM17.399 12.8127C14.064 12.8127 10.8014 15.37 10.8014 19.8787V32.7933L22.7121 15.6671C22.5954 15.5506 21.1953 12.8127 17.399 12.8127ZM30.4191 12.8127C26.4553 12.8127 25.3979 14.8516 23.3847 17.7176C21.2829 20.6885 16.8736 27.0846 12.8449 32.7933H22.4786L35.0316 14.9681C34.9732 14.9098 33.4808 12.8127 30.4191 12.8127Z" fill="#0089CF"/>
</svg>
