<svg width="151" height="48" viewBox="0 0 151 48" fill="none" xmlns="http://www.w3.org/2000/svg">
<g clip-path="url(#clip0_6071_446)">
<mask id="mask0_6071_446" style="mask-type:luminance" maskUnits="userSpaceOnUse" x="0" y="0" width="151" height="48">
<path d="M151 0H0V48H151V0Z" fill="white"/>
</mask>
<g mask="url(#mask0_6071_446)">
<path d="M52.8737 4.32376C53.2751 4.94011 53.4751 5.66304 53.4751 6.49258C53.4751 7.32206 53.2751 8.07283 52.8737 8.66136C52.4964 9.27773 51.9766 9.73186 51.3163 10.027C50.6561 10.3482 49.9006 10.5089 49.0513 10.5089C48.202 10.5089 47.4711 10.3482 46.7863 10.027C46.1261 9.7319 45.5952 9.27773 45.1938 8.66136C44.8165 8.07283 44.6275 7.3499 44.6275 6.49258C44.6275 5.63525 44.8165 4.89994 45.1938 4.28359C45.5952 3.69505 46.1261 3.23935 46.7863 2.91804C47.4711 2.62299 48.2253 2.47625 49.0513 2.47625C49.8778 2.47625 50.6561 2.62299 51.3163 2.91804C51.9766 3.23935 52.4964 3.7074 52.8737 4.32376ZM45.4785 12.4517V38.7764H52.6258V12.4517C51.5989 13.0028 50.3722 13.2774 49.031 13.2774C47.6893 13.2774 46.5059 13.0028 45.4785 12.4517ZM71.2153 12.4517V38.7764H78.3627V12.4517C77.3357 13.0028 76.1091 13.2774 74.7674 13.2774C73.4262 13.2774 72.2423 13.0028 71.2153 12.4517ZM64.145 13.7145C63.1176 14.6205 62.3325 16.0626 61.7911 18.0372H61.7053V12.6459H54.9433V38.7764H62.0906V26.6826C62.0906 24.6427 62.5186 23.1202 63.3743 22.1171C64.2583 21.1139 65.3712 20.6114 66.7128 20.6114C67.6264 20.6114 68.4246 20.8225 69.1094 21.2428V12.5002C68.8822 12.3937 68.0397 12.3545 67.7829 12.3545C66.4134 12.3545 65.1999 12.8084 64.145 13.7145ZM13.0536 18.4742L10.1005 17.1143C9.41572 16.7911 8.90215 16.4343 8.55975 16.0458C8.24532 15.6254 8.08895 15.1061 8.08895 14.4915C8.08895 13.7145 8.33093 13.1316 8.81654 12.743C9.33011 12.3227 10.0429 12.1116 10.9565 12.1116C11.9836 12.1116 13.0388 12.2742 14.1236 12.5973C15.2084 12.8887 16.2915 13.3576 17.3763 14.0058V5.84616C16.2915 5.39227 15.1935 5.05224 14.0808 4.82621C12.996 4.60019 11.9556 4.48623 10.9565 4.48623C8.73093 4.48623 6.79018 4.94016 5.13586 5.84616C3.48151 6.72043 2.21071 7.96642 1.32677 9.58603C0.442806 11.172 0 13.1316 0 15.2687C0 17.4057 0.513594 19.2344 1.54075 20.7569C2.56793 22.2457 4.1663 23.5254 6.33422 24.5939L8.55975 25.6626C9.41572 26.0829 10.0149 26.5367 10.3573 27.0224C10.6997 27.4763 10.8709 28.0257 10.8709 28.6739C10.8709 29.451 10.5993 30.0656 10.0577 30.5196C9.51613 30.9733 8.77373 31.1993 7.83216 31.1993C6.60585 31.1993 5.29223 30.9884 3.8947 30.5681C2.52513 30.1142 1.28397 29.5648 0.171208 28.9165V37.3678C1.17039 37.8853 2.35394 38.3075 3.72349 38.6304C5.09306 38.9219 6.47743 39.0678 7.87497 39.0678C10.1581 39.0678 12.14 38.6138 13.824 37.7078C15.508 36.7682 16.82 35.4736 17.7615 33.8223C18.7031 32.1391 19.1739 30.1625 19.1739 27.8966C19.1739 25.6307 18.6751 23.7366 17.6759 22.2142C16.6767 20.6599 15.1359 19.4138 13.0536 18.4742ZM42.5131 18.7172C43.2554 20.7253 43.6259 23.0884 43.6259 25.7112C43.6259 28.3339 43.2554 30.6484 42.5131 32.6566C41.7707 34.6648 40.7304 36.234 39.3888 37.3678C38.0769 38.5018 36.5361 39.0678 34.7665 39.0678C33.3394 39.0678 32.0274 38.6306 30.8291 37.7564C29.6307 36.8822 28.7747 35.7651 28.2612 34.4051H28.1755V46.6446H21.071V12.4516C22.0916 12.999 23.2389 13.2718 24.6019 13.2718C25.9649 13.2718 27.155 12.999 28.1755 12.4516V17.0172H28.2612C28.7748 15.6573 29.6307 14.5402 30.8291 13.6659C32.0274 12.7917 33.3394 12.3545 34.7666 12.3545C36.5361 12.3545 38.0769 12.9205 39.3888 14.0544C40.7304 15.1548 41.7707 16.7089 42.5131 18.7172ZM36.5213 25.7112C36.5213 24.5455 36.3501 23.5087 36.0077 22.6027C35.6933 21.6967 35.2093 20.9831 34.5526 20.4657C33.9254 19.9146 33.1254 19.64 32.2414 19.64C31.3575 19.64 30.5871 19.9146 29.9303 20.4657C29.2735 20.9831 28.7747 21.6967 28.4323 22.6027C28.1179 23.5087 27.9616 24.5772 27.9616 25.7112C27.9616 26.8451 28.1179 27.88 28.4323 28.8196C28.7747 29.7256 29.2603 30.4542 29.8875 31.0053C30.5443 31.5227 31.3278 31.7824 32.2414 31.7824C33.155 31.7824 33.9254 31.5227 34.5526 31.0053C35.2093 30.4542 35.6933 29.7256 36.0077 28.8196C36.3501 27.88 36.5213 26.8769 36.5213 25.7112ZM131.556 23.8502C131.267 23.6585 130.947 23.5069 130.595 23.3952L129.265 22.964C128.984 22.8761 128.755 22.7484 128.579 22.5807C128.41 22.413 128.326 22.1813 128.326 21.886C128.326 21.5507 128.446 21.2871 128.685 21.0954C128.924 20.9039 129.255 20.808 129.677 20.808C130.113 20.808 130.465 20.9317 130.732 21.1793C130.999 21.4188 131.158 21.7183 131.207 22.0775H132.421C132.386 21.5665 132.249 21.1274 132.009 20.76C131.77 20.3847 131.45 20.0974 131.049 19.8977C130.655 19.6902 130.198 19.5864 129.677 19.5864C129.17 19.5864 128.72 19.686 128.326 19.8857C127.932 20.0775 127.622 20.349 127.397 20.7002C127.179 21.0435 127.07 21.4428 127.07 21.8979C127.07 22.385 127.154 22.7842 127.323 23.0956C127.499 23.4071 127.728 23.6545 128.009 23.8383C128.298 24.0219 128.611 24.1697 128.949 24.2814L130.258 24.7126C130.546 24.8085 130.785 24.9561 130.975 25.1557C131.165 25.3473 131.26 25.6108 131.26 25.9461C131.26 26.3135 131.119 26.613 130.838 26.8445C130.563 27.0681 130.198 27.1799 129.74 27.1799C129.431 27.1799 129.146 27.1041 128.885 26.9523C128.625 26.8006 128.414 26.5969 128.252 26.3415C128.097 26.078 128.01 25.7864 127.988 25.4672H126.774C126.81 26.0661 126.961 26.589 127.228 27.036C127.496 27.4752 127.848 27.8147 128.284 28.0542C128.72 28.2938 129.206 28.4136 129.74 28.4136C130.303 28.4136 130.792 28.3098 131.207 28.1021C131.622 27.8945 131.943 27.6031 132.168 27.2278C132.4 26.8525 132.516 26.4133 132.516 25.9104C132.516 25.3753 132.428 24.9441 132.252 24.6168C132.083 24.2894 131.851 24.0338 131.556 23.8502ZM77.0548 2.91804C76.3946 2.62299 75.6159 2.47625 74.7898 2.47625C73.9638 2.47625 73.2096 2.62299 72.5248 2.91804C71.8646 3.23935 71.3338 3.69504 70.9324 4.28359C70.5551 4.89994 70.366 5.63525 70.366 6.49258C70.366 7.34986 70.5551 8.07283 70.9324 8.66136C71.3338 9.27773 71.8646 9.73186 72.5248 10.027C73.2096 10.3482 73.9405 10.5089 74.7898 10.5089C75.6392 10.5089 76.3946 10.3482 77.0548 10.027C77.7151 9.7319 78.2349 9.27773 78.6122 8.66136C79.0136 8.07283 79.2137 7.32211 79.2137 6.49258C79.2137 5.66304 79.0136 4.94011 78.6122 4.32376C78.2349 3.7074 77.7151 3.23935 77.0548 2.91804ZM123.976 28.3177H125.201V19.682H123.976V28.3177ZM150.891 28.3177H149.572L148.886 26.2576H145.646L144.97 28.3177H143.693L146.638 19.682H147.936L150.891 28.3177ZM148.485 25.0479L147.261 21.383L146.047 25.0479H148.485ZM138.702 25.5149C138.554 25.8984 138.449 26.2097 138.385 26.4493C138.322 26.6808 138.291 26.7966 138.291 26.7966C138.291 26.7966 138.255 26.6808 138.185 26.4493C138.121 26.2097 138.016 25.8984 137.868 25.5149L135.62 19.6821H134.09V28.3177H135.304V23.3351C135.304 22.9121 135.296 22.5768 135.282 22.3291C135.275 22.0815 135.272 21.9578 135.272 21.9578C135.272 21.9578 135.311 22.0775 135.388 22.3172C135.466 22.5487 135.578 22.8562 135.726 23.2394L137.689 28.3177H138.85L140.792 23.2394C140.932 22.8562 141.042 22.5487 141.119 22.3172C141.203 22.0775 141.245 21.9578 141.245 21.9578C141.245 21.9578 141.238 22.0815 141.224 22.3291C141.21 22.5768 141.203 22.9121 141.203 23.3351V28.3177H142.428V19.6821H140.95L138.702 25.5149ZM90.8187 22.8942L88.8929 22.0199C88.3215 21.7602 87.8934 21.4856 87.6088 21.1943C87.3241 20.9028 87.1807 20.5628 87.1807 20.1743C87.1807 19.6886 87.352 19.3168 87.6942 19.0572C88.0368 18.7975 88.5355 18.6685 89.1924 18.6685C89.9626 18.6685 90.8039 18.7975 91.7175 19.0572C92.659 19.2832 93.6005 19.6232 94.5421 20.0772V13.4231C93.7143 13.0663 92.8451 12.8085 91.9315 12.6459C91.0179 12.4517 90.1191 12.3545 89.2351 12.3545C86.5238 12.3545 84.3413 13.1148 82.6871 14.6373C81.0603 16.1598 80.2474 18.2146 80.2474 20.8057C80.2474 22.4888 80.6475 23.931 81.4457 25.1284C82.2442 26.2941 83.528 27.2822 85.2977 28.0911L87.138 28.9168C87.7653 29.1765 88.2081 29.4679 88.4648 29.7911C88.7216 30.1142 88.8497 30.5028 88.8497 30.9567C88.8497 31.4742 88.6789 31.8795 88.3363 32.1709C87.9941 32.4306 87.4523 32.5595 86.7099 32.5595C85.8259 32.5595 84.7842 32.397 83.5855 32.0738C82.4151 31.7507 81.3602 31.3284 80.4187 30.811V37.7565C81.4178 38.2104 82.4731 38.5504 83.5855 38.7764C84.6983 38.9707 85.7257 39.0678 86.6672 39.0678C89.4639 39.0678 91.7027 38.2907 93.3865 36.7365C95.0987 35.1505 95.9544 33.0134 95.9544 30.3253C95.9544 28.5114 95.5415 27.0226 94.7134 25.8569C93.8852 24.6595 92.5884 23.6713 90.8187 22.8942ZM105.838 48H106.882L106.883 0H105.838L105.838 48ZM119.14 26.5331L116.944 19.682H115.614L118.485 28.3177H119.731L122.601 19.682H121.335L119.14 26.5331Z" fill="#1D1D1E"/>
</g>
</g>
<defs>
<clipPath id="clip0_6071_446">
<rect width="151" height="48" fill="white"/>
</clipPath>
</defs>
</svg>
