<svg width="1440" height="900" viewBox="0 0 1440 900" fill="none" xmlns="http://www.w3.org/2000/svg" xmlns:xlink="http://www.w3.org/1999/xlink">
<g clip-path="url(#clip0_1212_1047)">
<rect width="1440" height="900" fill="white"/>
<path d="M650.632 183V166.2H653.992V183H650.632ZM656.017 183V170.904H658.969L659.209 172.872C659.577 172.2 660.097 171.656 660.769 171.24C661.457 170.824 662.281 170.616 663.241 170.616C664.233 170.616 665.073 170.832 665.761 171.264C666.449 171.68 666.969 172.288 667.321 173.088C667.689 173.888 667.873 174.872 667.873 176.04V183H664.537V176.352C664.537 175.424 664.337 174.712 663.937 174.216C663.553 173.704 662.937 173.448 662.089 173.448C661.577 173.448 661.113 173.576 660.697 173.832C660.281 174.072 659.953 174.424 659.713 174.888C659.489 175.336 659.377 175.888 659.377 176.544V183H656.017ZM675.243 183C674.379 183 673.619 182.864 672.963 182.592C672.323 182.32 671.827 181.872 671.475 181.248C671.123 180.624 670.947 179.776 670.947 178.704V173.712H668.859V170.904H670.947L671.307 167.568H674.307V170.904H677.451V173.712H674.307V178.728C674.307 179.256 674.419 179.624 674.643 179.832C674.883 180.04 675.283 180.144 675.843 180.144H677.427V183H675.243ZM684.527 183.288C683.311 183.288 682.231 183.032 681.287 182.52C680.359 181.992 679.631 181.264 679.103 180.336C678.575 179.392 678.311 178.304 678.311 177.072C678.311 175.824 678.567 174.72 679.079 173.76C679.607 172.784 680.335 172.016 681.263 171.456C682.207 170.896 683.303 170.616 684.551 170.616C685.751 170.616 686.799 170.88 687.695 171.408C688.607 171.936 689.311 172.648 689.807 173.544C690.319 174.44 690.575 175.472 690.575 176.64C690.575 176.8 690.567 176.976 690.551 177.168C690.551 177.36 690.535 177.568 690.503 177.792H680.711V175.752H687.167C687.119 175.016 686.847 174.432 686.351 174C685.871 173.552 685.271 173.328 684.551 173.328C684.007 173.328 683.511 173.456 683.063 173.712C682.615 173.968 682.263 174.344 682.007 174.84C681.751 175.336 681.623 175.968 681.623 176.736V177.432C681.623 178.056 681.743 178.608 681.983 179.088C682.223 179.552 682.559 179.912 682.991 180.168C683.423 180.424 683.927 180.552 684.503 180.552C685.079 180.552 685.551 180.432 685.919 180.192C686.303 179.952 686.591 179.64 686.783 179.256H690.215C689.991 180.008 689.607 180.688 689.063 181.296C688.535 181.904 687.887 182.392 687.119 182.76C686.351 183.112 685.487 183.288 684.527 183.288Z" fill="#076BDD"/>
<path d="M558.056 237L570.296 203.4H577.928L590.168 237H583.064L574.088 211.032L565.064 237H558.056ZM563.432 229.464L565.208 224.232H582.488L584.216 229.464H563.432ZM591.987 237V212.808H597.891L598.371 216.744C599.107 215.4 600.147 214.312 601.491 213.48C602.867 212.648 604.515 212.232 606.435 212.232C608.419 212.232 610.099 212.664 611.475 213.528C612.851 214.36 613.891 215.576 614.595 217.176C615.331 218.776 615.699 220.744 615.699 223.08V237H609.027V223.704C609.027 221.848 608.627 220.424 607.827 219.432C607.059 218.408 605.827 217.896 604.131 217.896C603.107 217.896 602.179 218.152 601.347 218.664C600.515 219.144 599.859 219.848 599.379 220.776C598.931 221.672 598.707 222.776 598.707 224.088V237H591.987ZM629.335 237.576C627.095 237.576 625.159 237.224 623.527 236.52C621.895 235.784 620.615 234.808 619.687 233.592C618.759 232.344 618.215 230.936 618.055 229.368H624.775C624.903 229.944 625.143 230.472 625.495 230.952C625.879 231.4 626.375 231.768 626.983 232.056C627.623 232.344 628.375 232.488 629.239 232.488C630.071 232.488 630.743 232.376 631.255 232.152C631.799 231.896 632.199 231.576 632.455 231.192C632.743 230.808 632.887 230.392 632.887 229.944C632.887 229.304 632.695 228.808 632.311 228.456C631.927 228.104 631.367 227.816 630.631 227.592C629.895 227.368 629.015 227.16 627.991 226.968C626.839 226.712 625.703 226.424 624.583 226.104C623.495 225.784 622.503 225.368 621.607 224.856C620.743 224.312 620.055 223.64 619.543 222.84C619.031 222.04 618.775 221.048 618.775 219.864C618.775 218.424 619.159 217.128 619.927 215.976C620.727 214.824 621.863 213.912 623.335 213.24C624.839 212.568 626.631 212.232 628.711 212.232C631.655 212.232 633.975 212.904 635.671 214.248C637.399 215.56 638.423 217.352 638.743 219.624H632.407C632.247 218.92 631.847 218.376 631.207 217.992C630.567 217.608 629.719 217.416 628.663 217.416C627.575 217.416 626.727 217.608 626.119 217.992C625.543 218.376 625.255 218.888 625.255 219.528C625.255 219.944 625.447 220.328 625.831 220.68C626.215 221 626.759 221.288 627.463 221.544C628.199 221.768 629.095 221.992 630.151 222.216C632.039 222.6 633.687 223.048 635.095 223.56C636.503 224.04 637.607 224.744 638.407 225.672C639.207 226.568 639.607 227.88 639.607 229.608C639.639 231.144 639.223 232.52 638.359 233.736C637.527 234.952 636.343 235.896 634.807 236.568C633.271 237.24 631.447 237.576 629.335 237.576Z" fill="#0C2F5D"/>
<path d="M511.733 280V266H520.433V267.64H513.733V272.18H519.333V273.78H513.733V280H511.733Z" fill="#737373"/>
<rect width="1440" height="60" transform="translate(0 840)" fill="#076BDD"/>
<path d="M477.768 877V863H480.608L485.088 872.04L489.528 863H492.388V877H489.988V867.12L486.028 875.04H484.148L480.168 867.14V877H477.768Z" fill="white"/>
</g>
<defs>
<clipPath id="clip0_1212_1047">
<rect width="1440" height="900" fill="white"/>
</clipPath>
</defs>
</svg>
