<?xml version="1.0" encoding="UTF-8"?>
<svg width="100px" height="18px" viewBox="0 0 100 18" version="1.1" xmlns="http://www.w3.org/2000/svg" xmlns:xlink="http://www.w3.org/1999/xlink">
    <title>Shape Copy 2</title>
    <g id="Page-1" stroke="none" stroke-width="1" fill="none" fill-rule="evenodd">
        <g id="formal-invitation-3-copy-2" fill="#ffffff" fill-rule="nonzero">
            <path d="M61.82,18 C65.29,16.55 68.68,14.22 73.12,10.66 C78,6.76 80.34,5.1 83.87,3.42 C88.56,1.16 93.75,0 100,0 L100,6.16 C98.76,6.05 97.43,6 96,6 C86.41,6 81.77,8.23 72.87,15.34 C71.59,16.37 70.48,17.24 69.47,18 L61.82,18 Z M38.18,18 L22.52,18 C21.52,17.24 20.42,16.37 19.12,15.34 C11.57,9.3 7.08,6.78 0,6.16 L0,0 C6.25,0 11.44,1.16 16.14,3.42 C19.67,5.12 22.01,6.77 26.87,10.66 C31.32,14.22 34.71,16.56 38.18,18 Z M61.82,0 L69.48,0 C67.2080867,1.79035512 64.7467117,3.32619945 62.14,4.58 C57.44,6.84 52.25,8 46,8 C39.75,8 34.56,6.84 29.86,4.58 C27.2532883,3.32619945 24.7919133,1.79035512 22.52,0 L38.18,0 C41.65,1.44 45.21,2 50,2 C54.8,2 58.35,1.44 61.82,0 Z" id="Shape-Copy-2"></path>
        </g>
    </g>
</svg>
