<svg width="138" height="139" viewBox="0 0 138 139" fill="none" xmlns="http://www.w3.org/2000/svg">
<path d="M73.2441 0.000976562C88.8197 -0.0195358 103.897 5.22722 116.059 14.8154L124.927 5.94824C126.805 4.06962 129.852 4.06963 131.73 5.94824C133.609 7.82679 133.609 10.8724 131.73 12.751L119.739 24.7422C117.929 26.5528 115.017 26.6273 113.115 24.9121C102.182 15.0497 87.975 9.60034 73.251 9.62109H73.2451C65.4149 9.62134 57.6608 11.1634 50.4268 14.1602C43.1927 17.1569 36.6196 21.5499 31.083 27.0869C25.5466 32.6239 21.1553 39.1975 18.1592 46.4316C15.1631 53.6658 13.6208 61.419 13.6211 69.249V69.25C13.621 77.08 15.1629 84.8334 18.1592 92.0674C21.1555 99.3014 25.5474 105.874 31.084 111.411C36.6205 116.948 43.1939 121.339 50.4277 124.336C57.6616 127.332 65.4152 128.875 73.2451 128.875H73.248C83.4915 128.88 93.5634 126.244 102.491 121.222C111.419 116.199 118.901 108.96 124.216 100.203C125.594 97.932 128.553 97.2077 130.824 98.5859C133.095 99.9643 133.82 102.923 132.441 105.194C126.269 115.365 117.577 123.773 107.208 129.606C96.8392 135.439 85.142 138.5 73.2451 138.495V138.496C64.1517 138.496 55.1473 136.705 46.7461 133.225C38.3449 129.745 30.7112 124.644 24.2813 118.214C17.8513 111.784 12.7503 104.15 9.27051 95.749C5.79073 87.3478 3.99992 78.3434 4 69.25C3.99958 60.1564 5.78997 51.1515 9.26953 42.75C12.7492 34.3484 17.8503 26.7146 24.2803 20.2842C30.7102 13.8537 38.3438 8.75275 46.7451 5.27246C55.1442 1.79311 64.1461 0.00218923 73.2373 0.000976562C73.2385 0.000974943 73.2401 0.000978125 73.2412 0.000976562L73.2441 0V0.000976562ZM72.5742 18.248C86.0613 18.248 98.9964 23.6058 108.533 33.1426C109.293 33.9021 110.026 34.6832 110.731 35.4844C110.502 35.6615 110.28 35.8548 110.069 36.0654L59.9258 86.2051L49.2734 75.5527C46.6252 72.9049 42.3318 72.9049 39.6836 75.5527C37.0353 78.2011 37.0353 82.4952 39.6836 85.1436L55.1318 100.593C56.4038 101.865 58.1299 102.579 59.9287 102.579C61.7272 102.579 63.4521 101.864 64.7236 100.592L118.354 46.96C121.661 53.7995 123.428 61.3588 123.428 69.1006C123.428 82.5876 118.07 95.5228 108.533 105.06C98.9964 114.596 86.0613 119.954 72.5742 119.954C59.0873 119.954 46.1529 114.596 36.6162 105.06C27.0794 95.5228 21.7217 82.5876 21.7217 69.1006C21.7218 55.6137 27.0795 42.6793 36.6162 33.1426C46.1529 23.6059 59.0873 18.2482 72.5742 18.248Z" fill="#347DEB"/>
</svg>
