<svg width="596" height="139" viewBox="0 0 596 139" fill="none" xmlns="http://www.w3.org/2000/svg">
<path d="M69.2441 5.99066e-05C84.8197 -0.0204524 99.8966 5.22729 112.059 14.8155L120.927 5.9483C122.805 4.06973 125.852 4.06973 127.73 5.9483C129.609 7.82684 129.609 10.8725 127.73 12.751L115.739 24.7422C113.929 26.5529 111.017 26.6273 109.115 24.9122C98.1823 15.0498 83.975 9.6004 69.251 9.62115H69.2451C61.4149 9.6214 53.6608 11.1635 46.4268 14.1602C39.1927 17.157 32.6196 21.55 27.083 27.087C21.5466 32.6239 17.1553 39.1975 14.1592 46.4317C11.1631 53.6658 9.62079 61.4191 9.62109 69.2491C9.62101 77.079 11.1629 84.8335 14.1592 92.0674C17.1555 99.3014 21.5474 105.874 27.084 111.411C32.6205 116.948 39.1939 121.34 46.4277 124.336C53.6616 127.332 61.4152 128.875 69.2451 128.875H69.248C79.4915 128.88 89.5634 126.244 98.4912 121.222C107.419 116.199 114.901 108.96 120.216 100.203L120.388 99.9395C121.284 98.6593 122.752 97.8879 124.328 97.8878H590.923C593.579 97.8879 595.733 100.042 595.733 102.698C595.733 105.355 593.579 107.509 590.923 107.509H126.97C120.919 116.642 112.78 124.222 103.208 129.607C92.8392 135.439 81.142 138.5 69.2451 138.495C60.1517 138.495 51.1473 136.705 42.7461 133.225C34.3449 129.745 26.7112 124.644 20.2812 118.214C13.8513 111.784 8.75033 104.15 5.27051 95.7491C1.79074 87.3479 -7.99585e-05 78.3434 7.22721e-08 69.2501C-0.00041534 60.1565 1.78998 51.1516 5.26953 42.7501C8.74917 34.3485 13.8503 26.7147 20.2803 20.2842C26.7102 13.8538 34.3438 8.75281 42.7451 5.27252C51.1442 1.79318 60.1461 0.00224914 69.2373 0.00103647H69.2412L69.2441 5.99066e-05Z" fill="#347DEB"/>
<path d="M68.5742 18.2491C82.0613 18.2491 94.9964 23.6068 104.533 33.1436C105.293 33.9031 106.026 34.6843 106.731 35.4854C106.502 35.6626 106.28 35.8558 106.069 36.0665L55.9258 86.2061L45.2734 75.5538C42.6252 72.9059 38.3318 72.9059 35.6836 75.5538C33.0353 78.2021 33.0353 82.4962 35.6836 85.1446L51.1318 100.594C52.4038 101.866 54.1299 102.58 55.9287 102.58C57.7272 102.58 59.4521 101.865 60.7236 100.593L114.354 46.961C117.661 53.8005 119.428 61.3599 119.428 69.1016C119.428 82.5887 114.07 95.5238 104.533 105.061C94.9964 114.597 82.0613 119.955 68.5742 119.955C55.0873 119.955 42.1529 114.597 32.6162 105.061C23.0794 95.5238 17.7217 82.5887 17.7217 69.1016C17.7218 55.6147 23.0795 42.6803 32.6162 33.1436C42.1529 23.6069 55.0873 18.2492 68.5742 18.2491Z" fill="#347DEB"/>
<path fill-rule="evenodd" clip-rule="evenodd" d="M154.24 43.6426C156.459 43.61 158.658 44.0705 160.678 44.9902C162.7 45.9113 164.493 47.2703 165.927 48.9688L166.216 49.3047C169.153 52.8128 170.593 57.3962 170.593 62.9902L170.595 65.4766H143.984C144.003 69.054 145.292 72.5169 147.633 75.2402L147.636 75.2441C148.724 76.5275 150.082 77.555 151.612 78.2539C153.143 78.9527 154.808 79.3053 156.49 79.2871C160.13 79.2541 163.741 78.6252 167.178 77.4248L167.891 77.1758L169.165 83.1025L168.658 83.3184C164.788 84.9638 160.612 85.7671 156.407 85.6758C150.502 85.6727 145.686 83.7695 142.024 79.9307C138.358 76.0869 136.557 70.9207 136.557 64.5098C136.557 58.2438 138.163 53.1741 141.443 49.374C143.008 47.5191 144.972 46.041 147.187 45.0488C149.402 44.0563 151.813 43.5748 154.24 43.6426ZM154.431 49.999C153.138 49.9613 151.851 50.1887 150.649 50.667C149.452 51.1436 148.364 51.8593 147.453 52.7705C145.716 54.5862 144.649 56.9299 144.41 59.418H162.932C162.847 57.009 161.914 54.6992 160.282 52.9062L160.269 52.8916L160.256 52.876C159.552 52.003 158.667 51.2937 157.661 50.7969C156.656 50.3001 155.554 50.0276 154.433 49.999H154.431Z" fill="#333333"/>
<path fill-rule="evenodd" clip-rule="evenodd" d="M245.681 43.6426C247.9 43.6101 250.098 44.0705 252.118 44.9902C254.145 45.9134 255.942 47.2766 257.377 48.9805C260.502 52.5287 262.033 57.2218 262.033 62.9902L262.036 65.4766H235.425C235.443 68.9357 236.648 72.2879 238.845 74.9678L239.074 75.2402L239.077 75.2441C240.166 76.5281 241.524 77.556 243.056 78.2549C244.587 78.9538 246.254 79.3062 247.938 79.2871C251.577 79.2541 255.189 78.6253 258.625 77.4248L259.338 77.1758L260.612 83.1025L260.105 83.3184C256.233 84.9647 252.054 85.768 247.848 85.6758C241.943 85.6726 237.126 83.7679 233.465 79.9258C229.799 76.0789 227.998 70.9143 227.997 64.5098C227.997 58.2439 229.603 53.1741 232.884 49.374C234.449 47.5191 236.412 46.041 238.627 45.0488C240.843 44.0563 243.254 43.5749 245.681 43.6426ZM245.871 49.999C244.578 49.9612 243.292 50.1887 242.09 50.667C240.892 51.1436 239.805 51.8592 238.894 52.7705L238.547 53.1494C237.014 54.9066 236.073 57.0997 235.851 59.418H254.372C254.287 57.009 253.355 54.6992 251.723 52.9062L251.709 52.8916L251.697 52.876C250.993 52.0029 250.107 51.2937 249.102 50.7969C248.096 50.3002 246.995 50.0277 245.874 49.999H245.871Z" fill="#333333"/>
<path fill-rule="evenodd" clip-rule="evenodd" d="M474.281 43.6426C476.5 43.61 478.699 44.0705 480.719 44.9902C482.741 45.9113 484.534 47.2703 485.968 48.9688L486.257 49.3047C489.194 52.8128 490.634 57.3962 490.634 62.9902L490.637 65.4766H464.026C464.045 69.054 465.334 72.5169 467.675 75.2402L467.678 75.2441C468.766 76.5281 470.125 77.556 471.656 78.2549C473.188 78.9538 474.855 79.3062 476.538 79.2871H476.54C480.18 79.2541 483.789 78.6252 487.226 77.4248L487.938 77.1758L489.213 83.1025L488.706 83.3184C484.834 84.9646 480.656 85.7679 476.449 85.6758C470.544 85.6727 465.728 83.7679 462.066 79.9258C458.401 76.0789 456.599 70.9143 456.599 64.5098C456.599 58.2438 458.205 53.1741 461.485 49.374C463.05 47.5193 465.013 46.041 467.228 45.0488C469.443 44.0563 471.854 43.575 474.281 43.6426ZM474.472 49.999C473.179 49.9613 471.892 50.1887 470.69 50.667C469.493 51.1436 468.405 51.8592 467.494 52.7705C465.757 54.5862 464.69 56.9299 464.451 59.418H482.974C482.889 57.009 481.956 54.6992 480.324 52.9062L480.311 52.8916L480.298 52.876C479.594 52.003 478.709 51.2937 477.703 50.7969C476.698 50.3001 475.596 50.0276 474.475 49.999H474.472Z" fill="#333333"/>
<path fill-rule="evenodd" clip-rule="evenodd" d="M384.132 43.6436C388.66 43.6436 392.176 44.8444 394.551 47.3594C396.919 49.8672 398.044 53.5679 398.044 58.3369V75.0186C398.007 77.9931 398.326 80.9617 398.994 83.8604L399.183 84.6758H392.06L391.931 84.1768C391.556 82.7332 391.326 81.258 391.237 79.7725C389.905 81.3953 388.266 82.7488 386.406 83.75C383.943 85.0756 381.179 85.7392 378.383 85.6758C375.374 85.6858 372.478 84.5259 370.309 82.4395C369.166 81.3634 368.264 80.0561 367.665 78.6055C367.065 77.1524 366.78 75.588 366.831 74.0166C366.799 72.1637 367.219 70.3306 368.056 68.6768L368.06 68.6699L368.062 68.6641C368.913 67.0705 370.154 65.7193 371.67 64.7373L371.996 64.5273C373.526 63.5664 375.189 62.837 376.933 62.3633L377.308 62.2656C379.515 61.6855 381.767 61.2938 384.04 61.0938L385.017 61.0195L390.903 60.5479V59.3037C390.903 56.0714 390.148 53.7712 388.757 52.2793C387.377 50.7994 385.263 50.0013 382.288 49.998C380.455 50.0675 378.639 50.3826 376.89 50.9346L376.874 50.9395L376.859 50.9434C374.908 51.4595 373.02 52.1901 371.229 53.1221L370.557 53.4727L368.569 48.041L369.094 47.7725C374.443 45.0346 379.46 43.6436 384.132 43.6436ZM390.904 66.1982C387.553 66.463 384.216 66.886 380.905 67.4707L380.906 67.4717C379.169 67.8062 377.533 68.5387 376.128 69.6133C375.523 70.0817 375.039 70.6885 374.715 71.3818C374.391 72.0752 374.237 72.8358 374.266 73.6006L374.267 73.625L374.266 73.6494C374.241 74.3417 374.373 75.0305 374.648 75.666C374.923 76.2984 375.334 76.8624 375.853 77.3164C377.021 78.3045 378.518 78.8196 380.048 78.7598H380.064C382.117 78.7301 384.121 78.1364 385.859 77.0449L385.861 77.0439C387.841 75.8112 389.554 74.1973 390.904 72.2979V66.1982Z" fill="#333333"/>
<path fill-rule="evenodd" clip-rule="evenodd" d="M567.011 43.6436C571.539 43.6436 575.055 44.8444 577.43 47.3594C579.798 49.8672 580.923 53.5679 580.923 58.3369V75.0186C580.886 77.9931 581.205 80.9616 581.873 83.8604L582.062 84.6758H574.941L574.812 84.1768C574.437 82.7332 574.207 81.258 574.118 79.7725C572.787 81.3949 571.149 82.7489 569.289 83.75C566.827 85.0757 564.062 85.7389 561.266 85.6758C558.256 85.6858 555.361 84.5259 553.191 82.4395C552.048 81.363 551.147 80.0549 550.547 78.6035C549.951 77.1606 549.667 75.6081 549.713 74.0479L549.712 73.6982C549.73 71.9528 550.149 70.2331 550.938 68.6729L550.941 68.666L550.944 68.6602C551.742 67.1647 552.885 65.8828 554.275 64.9189L554.557 64.7305C556.282 63.5959 558.186 62.7609 560.189 62.2617C562.397 61.6816 564.649 61.2899 566.922 61.0898L567.898 61.0156L573.785 60.5439V59.2998C573.785 56.0676 573.031 53.7673 571.64 52.2754C570.259 50.7953 568.145 49.9974 565.17 49.9941C563.337 50.0636 561.521 50.3787 559.771 50.9307L559.756 50.9355L559.741 50.9395C557.79 51.4556 555.902 52.1862 554.111 53.1182L553.438 53.4678L551.45 48.0352L551.976 47.7666C557.321 45.0328 562.336 43.6436 567.011 43.6436ZM573.785 66.1982C570.434 66.463 567.098 66.8861 563.787 67.4707C562.05 67.8052 560.414 68.5386 559.009 69.6133C558.404 70.0817 557.92 70.6886 557.596 71.3818C557.272 72.0752 557.117 72.8358 557.146 73.6006L557.147 73.625L557.146 73.6494C557.122 74.3417 557.254 75.0306 557.529 75.666C557.804 76.2984 558.215 76.8624 558.733 77.3164C559.902 78.3045 561.399 78.8196 562.929 78.7598H562.945C564.999 78.7308 567.004 78.137 568.743 77.0449L568.745 77.0439C570.723 75.8121 572.435 74.1994 573.785 72.3018V66.1982Z" fill="#333333"/>
<path fill-rule="evenodd" clip-rule="evenodd" d="M194.737 30.8438C201.777 30.8438 207.473 33.2538 211.755 38.0986C216.036 42.9175 218.138 49.5051 218.138 57.7773C218.138 66.2189 216 72.861 211.639 77.6104L211.64 77.6113C209.538 79.9237 206.961 81.753 204.084 82.9727C201.207 84.1924 198.1 84.7731 194.977 84.6758H183.731V30.8438H194.737ZM194.837 37.498H191.164V78.0225H194.839C197.004 78.1058 199.158 77.6694 201.12 76.75C203.082 75.8307 204.796 74.4553 206.117 72.7383L206.121 72.7334C208.9 69.194 210.331 64.2355 210.331 57.7783C210.331 51.3745 208.889 46.4284 206.084 42.8623L206.075 42.8506C204.771 41.1198 203.068 39.7298 201.111 38.7979C199.155 37.866 197.003 37.42 194.837 37.498Z" fill="#333333"/>
<path d="M282.528 60.1133L299.611 44.7441L299.801 44.5732H309.198L290.721 61.1475L311.194 84.6758H301.796L285.585 65.6787L282.528 68.3145V84.6758H275.396V30.8438H282.528V60.1133Z" fill="#333333"/>
<path d="M339.449 78.3203H349.494V84.6758H332.312V37.2002H322.191V30.8438H339.449V78.3203Z" fill="#333333"/>
<path d="M435.172 43.6436C438.225 43.6497 441.237 44.3467 443.982 45.6826L444.55 45.958L444.305 46.54L441.689 52.7676L441.058 52.4629C439.074 51.5063 436.917 50.9596 434.717 50.8555C433.066 50.8765 431.453 51.3553 430.058 52.2393L430.05 52.2441C428.351 53.2891 426.874 54.6563 425.7 56.2686L425.684 56.292L425.665 56.3135C424.93 57.1617 424.298 58.0944 423.782 59.0908V84.6758H416.683V44.5732H423.782V50.6416C426.781 46.0459 430.572 43.6436 435.172 43.6436Z" fill="#333333"/>
<path d="M526.613 43.6436C529.666 43.6497 532.678 44.3468 535.423 45.6826L535.99 45.958L533.131 52.7676L532.498 52.4629C530.514 51.5062 528.357 50.9595 526.157 50.8555C524.506 50.8766 522.893 51.3552 521.498 52.2393L521.491 52.2441C519.793 53.2891 518.315 54.6564 517.142 56.2686L517.125 56.292L517.106 56.3135C516.371 57.1614 515.74 58.0937 515.224 59.0898V84.6758H508.123V44.5732H515.224V50.6396C518.222 46.045 522.012 43.6437 526.611 43.6436H526.613Z" fill="#333333"/>
</svg>
