<svg width="116" height="40" viewBox="0 0 116 40" fill="none" xmlns="http://www.w3.org/2000/svg">
<g clip-path="url(#clip0_370_626)">
<g clip-path="url(#clip1_370_626)">
<path d="M39.0264 24.7583L32.798 20.0091L39.0264 15.26C39.1532 15.1642 39.227 15.015 39.227 14.8567C39.227 14.6983 39.1532 14.5492 39.0264 14.4533L20.5617 0.373325C20.3779 0.232492 20.121 0.232492 19.9372 0.373325L1.47232 14.4525C1.34559 14.5484 1.27173 14.6975 1.27173 14.8558V25.1616C1.27173 25.32 1.34559 25.4692 1.47232 25.565L19.9372 39.645C20.0295 39.715 20.1394 39.75 20.2494 39.75C20.3593 39.75 20.4693 39.715 20.5617 39.645L39.0264 25.565C39.1532 25.4692 39.227 25.32 39.227 25.1616C39.227 25.0033 39.1532 24.8541 39.0264 24.7583ZM31.957 19.3666L20.7622 10.8308V1.80832L37.8724 14.8558L31.957 19.3666ZM20.2494 11.7233L31.1151 20.0091L20.2494 28.295L9.38367 20.0091L20.2494 11.7233ZM19.7366 1.80832V10.83L8.54184 19.3666L2.62638 14.8558L19.7366 1.80832ZM2.29905 15.89L7.70002 20.0091L2.29905 24.1284V15.89ZM20.2494 38.6L2.62638 25.1616L8.54184 20.6508L19.9372 29.34C20.0295 29.41 20.1394 29.445 20.2494 29.445C20.3593 29.445 20.4693 29.41 20.5617 29.34L31.957 20.6508L37.8724 25.1616L20.2494 38.6Z" fill="#FF5000"/>
<path d="M91.3949 14.4183C86.9155 14.3941 83.2637 18.0032 83.273 22.4458C83.2821 26.9199 86.8702 30.5199 91.3437 30.5425C95.7576 30.5649 99.3116 26.9974 99.3604 22.4966C99.4082 18.05 95.8508 14.4425 91.3949 14.4183ZM82.2229 22.4741C82.2179 17.5266 86.3221 13.4508 91.3161 13.4432C96.3183 13.4357 100.428 17.4983 100.43 22.4516C100.431 27.4333 96.3577 31.5124 91.3756 31.5208C86.3364 31.5291 82.228 27.4683 82.2229 22.4741Z" fill="#253746"/>
<path d="M79.7741 13.6583H78.7241V31.1699H79.7741V13.6583Z" fill="#253746"/>
<path d="M114.798 31.1708L107.737 22.1375L114.365 13.6575H113.12L107.101 21.3241L101.11 13.6575H99.8026L106.462 22.1383L99.3694 31.1708H100.677L107.1 22.9516L113.553 31.1708H114.798Z" fill="#253746"/>
<path d="M80.0838 9.40668C80.0838 9.86416 79.7104 10.2359 79.2487 10.2359C78.7871 10.2359 78.4136 9.86504 78.4136 9.40668C78.4136 8.94918 78.7871 8.57751 79.2487 8.57751C79.7104 8.57835 80.0838 8.94918 80.0838 9.40668Z" fill="#253746"/>
<path d="M56.7066 13.4433C53.2335 13.4484 50.1927 15.4225 48.6635 18.2875V6.92249H47.6135V22.4767C47.6194 27.47 51.7279 31.5291 56.7662 31.5216C61.7492 31.5133 65.8215 27.4333 65.8199 22.4525C65.8191 17.4983 61.7089 13.4358 56.7066 13.4433ZM56.7352 30.5425C52.2616 30.52 48.6727 26.92 48.6644 22.4458C48.6551 18.0033 52.307 14.395 56.7864 14.4183C61.2423 14.4425 64.7993 18.05 64.7515 22.4958C64.7028 26.9975 61.1491 30.5642 56.7352 30.5425Z" fill="#253746"/>
<path d="M75.0572 13.5667C71.1888 13.5667 68.0414 16.6841 68.0381 20.5142V31.17H69.088V20.5149C69.0906 17.2591 71.7679 14.6008 75.0572 14.6008H75.7479V13.5667H75.0572Z" fill="#253746"/>
</g>
</g>
<defs>
<clipPath id="clip0_370_626">
<rect width="116" height="40" fill="white"/>
</clipPath>
<clipPath id="clip1_370_626">
<rect width="116" height="40" fill="white"/>
</clipPath>
</defs>
</svg>
