<svg width="116" height="40" viewBox="0 0 116 40" fill="none" xmlns="http://www.w3.org/2000/svg">
<path d="M38.3536 24.8117L32.0263 20.0003L38.3536 15.1888C38.4824 15.0918 38.5574 14.9407 38.5574 14.7802C38.5574 14.6198 38.4824 14.4687 38.3536 14.3716L19.5959 0.10701C19.4092 -0.0356699 19.1483 -0.0356699 18.9615 0.10701L0.203777 14.3707C0.0750311 14.4679 0 14.619 0 14.7794V25.2203C0 25.3808 0.0750311 25.5319 0.203777 25.6289L18.9615 39.8935C19.0553 39.9645 19.167 40 19.2787 40C19.3904 40 19.5021 39.9645 19.5959 39.8935L38.3536 25.6289C38.4824 25.5319 38.5574 25.3808 38.5574 25.2203C38.5574 25.0599 38.4824 24.9088 38.3536 24.8117ZM31.172 19.3493L19.7997 10.7016V1.56082L37.1813 14.7794L31.172 19.3493ZM19.2787 11.6058L30.3168 20.0003L19.2787 28.3948L8.24062 20.0003L19.2787 11.6058ZM18.7578 1.56082V10.7008L7.38543 19.3493L1.37614 14.7794L18.7578 1.56082ZM1.04362 15.8272L6.53026 20.0003L1.04362 24.1735V15.8272ZM19.2787 38.8349L1.37614 25.2203L7.38543 20.6504L18.9615 29.4535C19.0553 29.5244 19.167 29.5598 19.2787 29.5598C19.3904 29.5598 19.5021 29.5244 19.5959 29.4535L31.172 20.6504L37.1813 25.2203L19.2787 38.8349Z" fill="#FF5000"/>
<path fill-rule="evenodd" clip-rule="evenodd" d="M49.0553 11.4214C50.5924 8.54223 53.6488 6.55825 57.1397 6.55315C62.1676 6.54561 66.2988 10.6283 66.2996 15.6071C66.3012 20.6127 62.2081 24.713 57.1995 24.7213C52.1354 24.7289 48.0059 20.6496 48 15.6314V0H49.0553V11.4214ZM57.2198 7.53304C52.7175 7.50962 49.0469 11.1358 49.0562 15.6004C49.0647 20.0968 52.6719 23.7147 57.1684 23.7373C61.6049 23.7591 65.1768 20.1747 65.2257 15.6506C65.2738 11.1828 61.6986 7.55736 57.2198 7.53304Z" fill="#253746"/>
<path d="M76.2789 6.55738V7.59663H75.5847C72.2786 7.59663 69.5875 10.2682 69.5849 13.5402V24.7213H68.5296V13.5394C68.5329 9.69032 71.6965 6.55738 75.5847 6.55738H76.2789Z" fill="#253746"/>
<path d="M80.3256 24.7213H79.2702V6.55738H80.3256V24.7213Z" fill="#253746"/>
<path fill-rule="evenodd" clip-rule="evenodd" d="M91.9241 6.55738C96.9686 6.54983 101.113 10.6318 101.115 15.6088C101.116 20.6142 97.0084 24.7129 91.9842 24.7213C86.9024 24.7296 82.7592 20.6494 82.7541 15.6313C82.7491 10.6602 86.888 6.56494 91.9241 6.55738ZM92.0036 7.53708C87.4864 7.51277 83.8037 11.1392 83.813 15.6029C83.8223 20.0984 87.4407 23.7156 91.952 23.7383C96.4032 23.7608 99.9872 20.1763 100.036 15.654C100.085 11.1861 96.4972 7.56139 92.0036 7.53708Z" fill="#253746"/>
<path d="M108.018 14.5088L114.26 6.55738H115.551L108.678 15.3524L116 24.7213H114.709L108.017 16.1968L101.356 24.7213H100L107.356 15.3533L100.449 6.55738H101.805L108.018 14.5088Z" fill="#253746"/>
<path d="M79.7974 1.66329C80.2614 1.66414 80.6368 2.03683 80.6368 2.49661C80.6368 2.95634 80.2614 3.32985 79.7974 3.32985C79.3335 3.32985 78.958 2.95722 78.958 2.49661C78.958 2.03683 79.3335 1.6633 79.7974 1.66329Z" fill="#253746"/>
<path fill-rule="evenodd" clip-rule="evenodd" d="M50.525 30.0918C51.3729 30.0918 52.0598 30.3107 52.5362 30.7208C53.0144 31.1325 53.2694 31.7274 53.2694 32.4542C53.2694 33.4117 52.7852 34.1314 52.2271 34.5053C53.3375 34.9508 53.8286 35.9785 53.8286 37.078C53.8286 37.9259 53.5443 38.6174 53.054 39.097C52.564 39.5763 51.8765 39.836 51.0842 39.836H47.917V30.0918H50.525ZM48.9866 38.8482H51.0706C51.5707 38.8482 51.9903 38.667 52.2854 38.3463C52.5811 38.0251 52.7589 37.556 52.7589 36.9689C52.7589 36.4942 52.6302 36.0374 52.355 35.7014C52.0822 35.3683 51.6577 35.1441 51.0433 35.1441H48.9866V38.8482ZM48.9866 34.0881H50.6614C51.5319 34.0881 52.1997 33.3573 52.1997 32.5497C52.1997 32.1 52.0601 31.7364 51.7895 31.4845C51.518 31.2319 51.1016 31.0796 50.525 31.0796H48.9866V34.0881Z" fill="#253746"/>
<path d="M58.2471 34.3139L61.1826 30.0918H62.4024L58.7818 35.3898V39.836H57.7121V35.3896L54.1056 30.0918H55.3252L58.2471 34.3139Z" fill="#253746"/>
<path fill-rule="evenodd" clip-rule="evenodd" d="M66.7996 30.0918C68.5405 30.0918 69.9668 31.3997 69.9668 33.1499C69.9668 34.7622 68.7925 35.998 67.4443 36.2384L69.8336 39.836H68.615L66.3236 36.3307H64.6884V39.836H63.6187V30.0918H66.7996ZM64.6884 35.3566H66.7996C67.9943 35.3566 68.8971 34.3699 68.8971 33.1499C68.8971 31.9502 68.0009 31.0659 66.7996 31.0659H64.6884V35.3566Z" fill="#253746"/>
<path fill-rule="evenodd" clip-rule="evenodd" d="M79.881 39.836H78.7543L77.7041 37.2719H73.0623L72.0121 39.836H70.8858L74.867 30.0918H75.8719L79.881 39.836ZM73.4434 36.2567H77.309L75.3698 31.5927L73.4434 36.2567Z" fill="#253746"/>
<path fill-rule="evenodd" clip-rule="evenodd" d="M75.5077 25.5737C76.5037 25.5737 77.311 26.3811 77.311 27.377C77.311 28.3729 76.5037 29.1803 75.5077 29.1803C74.5118 29.1803 73.7045 28.3729 73.7045 27.377C73.7045 26.3811 74.5118 25.5737 75.5077 25.5737ZM75.5077 26.6229C75.0913 26.6229 74.7536 26.9605 74.7536 27.377C74.7536 27.7935 75.0913 28.1311 75.5077 28.1311C75.9242 28.1311 76.2618 27.7935 76.2618 27.377C76.2618 26.9605 75.9242 26.6229 75.5077 26.6229Z" fill="#253746"/>
</svg>
