<svg width="32" height="32" viewBox="0 0 32 32" fill="none" xmlns="http://www.w3.org/2000/svg">
<path d="M18.1572 11.4161H18.3429L18.343 9.83362H21.8712V22.1664H18.343V20.5839H18.3415C18.3415 20.5839 18.4127 16.2722 18.4127 16C18.4127 15.4263 18.3081 14.8679 18.0992 14.3246C17.8902 13.7818 17.5728 13.3357 17.1475 12.9867C16.7216 12.6376 16.1922 12.463 15.5575 12.463C14.9227 12.463 14.3928 12.6376 13.9674 12.9867C13.5415 13.3356 13.2245 13.7818 13.0157 14.3246C12.8066 14.8679 12.7023 15.4259 12.7023 16C12.7023 16.5741 12.8068 17.1326 13.0157 17.6754C13.2246 18.2186 13.5417 18.6644 13.9674 19.0135C14.3929 19.3625 14.9231 19.5369 15.5575 19.5369C16.1918 19.5369 16.7217 19.3625 17.1475 19.0135C17.1712 18.9941 17.193 18.9734 17.2159 18.9535V21.5769C17.0081 21.7288 16.7657 21.875 16.4859 22.0153C15.9753 22.2713 15.3253 22.3992 14.5363 22.3992C13.623 22.3992 12.8301 22.2168 12.157 21.8524C11.4838 21.488 10.9227 20.9994 10.4742 20.3863C10.025 19.7737 9.6885 19.0873 9.4644 18.3271C9.2399 17.5672 9.1278 16.7913 9.1278 16.0002C9.1278 15.209 9.2399 14.4335 9.4644 13.6732C9.6885 12.9132 10.0252 12.2268 10.4742 11.6138C10.9228 11.0012 11.4838 10.5125 12.157 10.1478C12.8301 9.78355 13.623 9.60107 14.5363 9.60107C15.3253 9.60107 15.9753 9.72912 16.4859 9.98508C16.9966 10.241 17.3873 10.5166 17.6582 10.8111C17.9287 11.106 18.0953 11.3078 18.1572 11.4161Z" fill="#092951"/>
<path d="M4.5571 19.0019C4.9283 18.6142 5.4077 18.4202 5.9961 18.4202C6.5531 18.4202 7.021 18.6143 7.4003 19.0019C7.7793 19.3898 7.9691 19.8628 7.9691 20.4213C7.9691 20.9644 7.7793 21.4298 7.4003 21.8173C7.021 22.205 6.5531 22.3991 5.9961 22.3991C5.4079 22.3991 4.9285 22.2013 4.5571 21.8058C4.1855 21.4103 4 20.9487 4 20.4213C4 19.8628 4.1855 19.3898 4.5571 19.0019Z" fill="#092951"/>
<path d="M24.0298 22.1664V9.83362H27.558V22.1664H24.0298Z" fill="#092951"/>
</svg>
