<svg width="116" height="40" viewBox="0 0 116 40" fill="none" xmlns="http://www.w3.org/2000/svg">
<path d="M38.2386 24.8119L31.9303 20.0005L38.2386 15.1891C38.3669 15.0921 38.4417 14.9409 38.4417 14.7805C38.4417 14.6201 38.3669 14.469 38.2386 14.3719L19.5371 0.107375C19.351 -0.0353035 19.0908 -0.0353035 18.9047 0.107375L0.203166 14.371C0.0748061 14.4682 0 14.6193 0 14.7796V25.2205C0 25.381 0.0748061 25.5321 0.203166 25.6291L18.9047 39.8937C18.9981 39.9646 19.1095 40.0001 19.2209 40.0001C19.3322 40.0001 19.4436 39.9646 19.5371 39.8937L38.2386 25.6291C38.3669 25.5321 38.4417 25.381 38.4417 25.2205C38.4417 25.0601 38.3669 24.909 38.2386 24.8119ZM31.0785 19.3496L19.7403 10.7019V1.56118L37.0697 14.7796L31.0785 19.3496ZM19.2209 11.6061L30.2259 20.0005L19.2209 28.395L8.2159 20.0005L19.2209 11.6061ZM18.7015 1.56118V10.7011L7.36328 19.3496L1.37201 14.7796L18.7015 1.56118ZM1.04049 15.8274L6.51067 20.0005L1.04049 24.1737V15.8274ZM19.2209 38.835L1.37201 25.2205L7.36328 20.6506L18.9047 29.4536C18.9981 29.5246 19.1095 29.56 19.2209 29.56C19.3322 29.56 19.4436 29.5246 19.5371 29.4536L31.0785 20.6506L37.0697 25.2205L19.2209 38.835Z" fill="#FF5000"/>
<path d="M50.6633 30.168C52.1804 30.168 53.3352 31.2387 53.3352 32.7686V32.8662H52.2854V32.7686C52.2854 32.2706 52.1146 31.8757 51.8313 31.6055C51.5473 31.3346 51.1425 31.1807 50.6633 31.1807C49.7086 31.1807 49.0413 31.8007 49.0413 32.6611C49.0413 32.9541 49.1099 33.1845 49.2268 33.3721C49.3442 33.5603 49.5141 33.7117 49.7239 33.8408C50.1489 34.1022 50.7161 34.2603 51.3079 34.457C51.8912 34.651 52.4923 34.8813 52.9465 35.2891C53.4064 35.702 53.7092 36.2906 53.7092 37.1826C53.7092 38.8667 52.3727 39.9433 50.7034 39.9434C49.0293 39.9434 47.6976 38.7555 47.6975 37.1025V37.0039H48.7473V37.1025C48.7474 37.652 48.951 38.1069 49.2961 38.4248C49.642 38.7432 50.1371 38.9306 50.7297 38.9307C51.2987 38.9307 51.7811 38.768 52.1194 38.4727C52.456 38.1788 52.6594 37.7455 52.6594 37.1826C52.6594 36.5365 52.3864 36.138 51.9719 35.8477C51.5485 35.5512 50.981 35.3699 50.3918 35.1689C49.8106 34.9707 49.2095 34.7538 48.7561 34.3809C48.2958 34.0023 47.9915 33.4661 47.9915 32.6475C47.9915 31.9051 48.279 31.2831 48.76 30.8477C49.2405 30.4129 49.9089 30.168 50.6633 30.168ZM60.1506 30.168C62.8846 30.1682 65.05 32.312 65.05 35.0557C65.05 37.7993 62.8846 39.9432 60.1506 39.9434C57.43 39.9434 55.2512 37.7996 55.2512 35.0557C55.2512 32.3117 57.43 30.168 60.1506 30.168ZM77.4446 30.168C80.1787 30.168 82.344 32.3119 82.344 35.0557C82.344 37.7994 80.1787 39.9433 77.4446 39.9434C74.7239 39.9434 72.5452 37.7996 72.5452 35.0557C72.5452 32.3117 74.7239 30.168 77.4446 30.168ZM67.6975 38.8232H72.0715V39.8359H66.6477V30.2754H67.6975V38.8232ZM60.1506 31.208C58.0036 31.208 56.301 32.8901 56.301 35.0557C56.301 37.2212 58.0036 38.9033 60.1506 38.9033C62.3106 38.9031 64.0002 37.2213 64.0002 35.0557C64.0002 32.89 62.3106 31.2082 60.1506 31.208ZM77.4446 31.208C75.2975 31.208 73.595 32.8901 73.595 35.0557C73.595 37.2212 75.2975 38.9033 77.4446 38.9033C79.6047 38.9033 81.2942 37.2214 81.2942 35.0557C81.2942 32.8899 79.6047 31.2081 77.4446 31.208ZM48.9075 11.4219C50.44 8.54269 53.4876 6.55881 56.968 6.55371C61.9808 6.54623 66.1 10.6287 66.1008 15.6074C66.1023 20.6129 62.021 24.7133 57.0276 24.7217C51.9788 24.7292 47.8618 20.6498 47.8557 15.6318V0H48.9075V11.4219ZM76.0491 6.55762V7.59668H75.3567C72.0605 7.59668 69.3779 10.2682 69.3752 13.54V24.7217H68.3225V13.5391C68.326 9.69018 71.4803 6.55762 75.3567 6.55762H76.0491ZM80.0833 24.7217H79.0305V6.55762H80.0833V24.7217ZM91.6467 6.55762C96.6759 6.55013 100.808 10.6316 100.81 15.6084C100.811 20.6138 96.7155 24.7132 91.7063 24.7217C86.64 24.7299 82.5095 20.6496 82.5042 15.6318C82.4991 10.6607 86.6257 6.56517 91.6467 6.55762ZM107.692 14.5078L113.915 6.55762H115.202L108.349 15.3516L115.651 24.7188H114.364L107.691 16.1953L101.048 24.7188H99.6965L107.031 15.3525L100.145 6.55762H101.496L107.692 14.5078ZM91.7258 7.53711C87.2222 7.51283 83.5507 11.139 83.5598 15.6025C83.569 20.0979 87.1765 23.7155 91.6741 23.7383C96.1119 23.7608 99.6854 20.1764 99.7346 15.6543C99.7827 11.1865 96.2059 7.56142 91.7258 7.53711ZM57.0481 7.5332C52.5592 7.50977 48.8992 11.136 48.9084 15.6006C48.9169 20.0968 52.5135 23.7145 56.9963 23.7373C61.4196 23.7591 64.9808 20.1745 65.0295 15.6504C65.0773 11.1828 61.5132 7.55764 57.0481 7.5332ZM79.5569 1.66309C80.0195 1.66398 80.3938 2.03733 80.3938 2.49707C80.3936 2.9566 80.0193 3.33002 79.5569 3.33008C79.0945 3.33008 78.7202 2.95752 78.72 2.49707C78.72 2.0373 79.0944 1.66309 79.5569 1.66309Z" fill="#253746"/>
</svg>
