<svg width="83" height="22" viewBox="0 0 83 22" fill="none" xmlns="http://www.w3.org/2000/svg">
<g clip-path="url(#clip0_2792_15126)">
<mask id="mask0_2792_15126" style="mask-type:luminance" maskUnits="userSpaceOnUse" x="0" y="0" width="83" height="22">
<path d="M83 0H0V22H83V0Z" fill="white"/>
</mask>
<g mask="url(#mask0_2792_15126)">
<mask id="mask1_2792_15126" style="mask-type:luminance" maskUnits="userSpaceOnUse" x="0" y="0" width="83" height="22">
<path d="M83 0H0V22H83V0Z" fill="white"/>
</mask>
<g mask="url(#mask1_2792_15126)">
<path d="M3.68791 0.12207L3.68903 17.3413H0.113281V0.12207H3.68791ZM4.81446 17.3413H12.0907V14.2232H4.81446V17.3413ZM26.6444 5.00847V17.3412H30.1726L30.1494 5.00847H26.6444ZM31.8671 5.07842C31.6583 5.17558 31.4717 5.28572 31.3061 5.40799V8.85015C31.8325 8.4478 32.5435 8.24303 33.4455 8.24303C33.8013 8.24303 34.2036 8.28957 34.6525 8.38265V4.89226C34.2499 4.81484 33.8785 4.77592 33.5384 4.77592C32.8572 4.77592 32.3001 4.87703 31.8671 5.07842ZM35.6739 5.00847V17.3412H39.2021L39.1789 5.00847H35.6739ZM40.8965 5.07842C40.6878 5.17558 40.5011 5.28572 40.3355 5.40799V8.85015C40.8619 8.4478 41.5729 8.24303 42.4749 8.24303C42.8307 8.24303 43.2331 8.28957 43.682 8.38265V4.89226C43.2793 4.81484 42.9079 4.77592 42.5678 4.77592C41.8866 4.77592 41.3295 4.87703 40.8965 5.07842ZM73.6717 6.59092H73.486C73.4241 6.48261 73.2575 6.2808 72.987 5.98592C72.7161 5.69146 72.3254 5.41589 71.8147 5.15993C71.3041 4.90397 70.6541 4.77592 69.8651 4.77592C68.9518 4.77592 68.1589 4.9584 67.4858 5.32267C66.8126 5.68737 66.2516 6.17602 65.803 6.78863C65.354 7.40167 65.0173 8.08805 64.7932 8.84803C64.5687 9.6083 64.4566 10.3838 64.4566 11.175C64.4566 11.9661 64.5687 12.742 64.7932 13.5019C65.0173 14.2621 65.3538 14.9485 65.803 15.5611C66.2515 16.1742 66.8126 16.6628 67.4858 17.0272C68.1589 17.3916 68.9518 17.574 69.8651 17.574C70.6541 17.574 71.3041 17.4461 71.8147 17.1901C72.0945 17.0498 72.3369 16.9036 72.5447 16.7517V14.1283C72.5218 14.1482 72.5 14.1689 72.4763 14.1883C72.0505 14.5373 71.5206 14.7117 70.8863 14.7117C70.2519 14.7117 69.7217 14.5373 69.2962 14.1883C68.8705 13.8392 68.5534 13.3934 68.3445 12.8502C68.1356 12.3074 68.0311 11.7489 68.0311 11.1748C68.0311 10.6007 68.1354 10.0427 68.3445 9.49943C68.5533 8.95662 68.8703 8.51042 69.2962 8.16152C69.7216 7.81248 70.2515 7.63789 70.8863 7.63789C71.521 7.63789 72.0504 7.81248 72.4763 8.16152C72.9016 8.51056 73.219 8.95662 73.428 9.49943C73.6369 10.0427 73.7415 10.6011 73.7415 11.1748C73.7415 11.447 73.6703 15.7587 73.6703 15.7587H73.6718V17.3412H77.2V5.00847H73.6718L73.6717 6.59092ZM51.6186 11.5925L53.19 16.2218L57.3653 5.00847H53.8139L51.6186 11.5925ZM44.6453 5.00847L49.1948 17.4575C48.8388 18.0625 48.4208 18.4696 47.9414 18.6791C47.4617 18.8885 46.8504 18.9933 46.1077 18.9933C45.798 18.9933 45.4347 18.9776 45.0167 18.9467V21.7856C45.5119 21.8474 45.9685 21.8787 46.3862 21.8787C47.5932 21.8787 48.6065 21.6962 49.427 21.3318C50.247 20.9671 50.9394 20.4126 51.5045 19.6681C51.8933 19.1553 52.2426 18.5483 52.5545 17.8517L48.1735 5.00833L44.6453 5.00847ZM21.2362 14.1184C21.0657 14.3126 20.8299 14.4831 20.5283 14.6304C20.2264 14.778 19.8355 14.8514 19.3561 14.8514C18.5206 14.8514 17.8666 14.5802 17.3947 14.0369C17.1803 13.7906 17.0122 13.522 16.8858 13.2341H13.3647C13.3912 13.3236 13.4189 13.4129 13.4487 13.5017C13.7039 14.262 14.087 14.9484 14.5976 15.561C15.1083 16.174 15.7582 16.6627 16.5474 17.0271C17.3366 17.3915 18.2727 17.5739 19.3561 17.5739C20.3462 17.5739 21.1742 17.4344 21.8397 17.155C22.505 16.8759 23.0428 16.5267 23.453 16.1079C23.8628 15.689 24.1762 15.2702 24.393 14.8514C24.6097 14.4325 24.7878 13.9362 24.927 13.3621H21.6772C21.5532 13.6727 21.4063 13.9247 21.2362 14.1184ZM24.3002 7.7194C24.7952 8.6891 25.0428 9.86412 25.0428 11.2448V12.1057L13.1274 12.106C13.0867 11.7915 13.0655 11.4736 13.0655 11.1517C13.0655 10.3762 13.1852 9.61225 13.4254 8.85974C13.6651 8.10751 14.0365 7.42099 14.5395 6.80034C15.0422 6.18011 15.6845 5.68737 16.4661 5.32267C17.2473 4.9584 18.1721 4.77592 19.2399 4.77592C20.3692 4.77592 21.3714 5.02426 22.2459 5.52053C23.1199 6.01708 23.8046 6.75013 24.3002 7.7194ZM21.654 9.96481C21.6076 9.11189 21.3523 8.47558 20.888 8.05674C20.4238 7.63789 19.8512 7.42847 19.1704 7.42847C18.4895 7.42847 17.909 7.64946 17.4295 8.09171C16.9498 8.53383 16.6788 9.15843 16.6172 9.96481H21.654ZM60.3249 13.595C59.7365 13.595 59.2571 13.789 58.8859 14.1767C58.5143 14.5646 58.3288 15.0376 58.3288 15.5961C58.3288 16.1235 58.5143 16.5851 58.8859 16.9806C59.2573 17.3761 59.7367 17.5739 60.3249 17.5739C60.8819 17.5739 61.3498 17.3798 61.7291 16.9921C62.1081 16.6046 62.2979 16.1392 62.2979 15.5961C62.2979 15.0376 62.1081 14.5646 61.7291 14.1767C61.3498 13.7891 60.8819 13.595 60.3249 13.595ZM79.3586 5.00847V17.3412H82.8868V5.00847H79.3586Z" fill="#092951"/>
</g>
</g>
</g>
<defs>
<clipPath id="clip0_2792_15126">
<rect width="83" height="22" fill="white"/>
</clipPath>
</defs>
</svg>
